<svg id="data-copy" xmlns="http://www.w3.org/2000/svg" width="385" height="385" viewBox="0 0 385 385">
  <g id="Group_1" data-name="Group 1" transform="translate(6.064)">
    <path id="Path_1" data-name="Path 1" d="M194.5,0A192.581,192.581,0,0,0,8.065,144.375l277.422,217.8A192.459,192.459,0,0,0,387,192.5C387,86.185,300.815,0,194.5,0Z" transform="translate(-8.065)" fill="#4fabf7"/>
  </g>
  <g id="Group_2" data-name="Group 2" transform="translate(101.514 0)">
    <path id="Path_2" data-name="Path 2" d="M257.24,38.42,236.09,6.7A15.039,15.039,0,0,0,223.577,0H150.039A15.039,15.039,0,0,0,135,15.039V225.586a15.039,15.039,0,0,0,15.039,15.039H403.447a15.039,15.039,0,0,0,15.039-15.039V60.156a15.039,15.039,0,0,0-15.039-15.039H269.753A15.039,15.039,0,0,1,257.24,38.42Z" transform="translate(-135 0)" fill="#2a428c"/>
  </g>
  <g id="Group_3" data-name="Group 3" transform="translate(183.101 67.676)">
    <path id="Path_3" data-name="Path 3" d="M352.533,112.559H254.779a11.279,11.279,0,0,1,0-22.559h97.754a11.279,11.279,0,0,1,0,22.559Z" transform="translate(-243.5 -90)" fill="#1c2e7a"/>
  </g>
  <g id="Group_4" data-name="Group 4" transform="translate(101.514)">
    <path id="Path_4" data-name="Path 4" d="M301.934,166.934H180.117V15.039A15.039,15.039,0,0,1,195.156,0H150.039A15.039,15.039,0,0,0,135,15.039V225.586a15.039,15.039,0,0,0,15.039,15.039H339.531V204.531A37.64,37.64,0,0,0,301.934,166.934Z" transform="translate(-135)" fill="#1c2e7a"/>
  </g>
  <g id="Group_8" data-name="Group 8" transform="translate(83.395 87.799)">
    <g id="Group_5" data-name="Group 5" transform="translate(0 21.771)">
      <path id="Path_5" data-name="Path 5" d="M228.3,177.616l-31.9-31.9L117.512,224.6a22.558,22.558,0,1,0,31.9,31.9Z" transform="translate(-110.905 -145.714)" fill="#fff"/>
    </g>
    <g id="Group_6" data-name="Group 6" transform="translate(37.637 21.771)">
      <path id="Path_6" data-name="Path 6" d="M208.811,145.714l-47.854,47.854a22.558,22.558,0,0,1,31.9,31.9l47.854-47.854Z" transform="translate(-160.957 -145.714)" fill="#d3dcfb"/>
    </g>
    <g id="Group_7" data-name="Group 7" transform="translate(55.668)">
      <path id="Path_7" data-name="Path 7" d="M260.3,116.788l-70.521,5.771a5.264,5.264,0,0,0-3.293,8.968l67.183,67.182a5.263,5.263,0,0,0,8.968-3.293l5.771-70.521a7.519,7.519,0,0,0-8.108-8.108Z" transform="translate(-184.936 -116.762)" fill="#fff"/>
    </g>
  </g>
  <g id="Group_9" data-name="Group 9" transform="translate(0 144.375)">
    <path id="Path_8" data-name="Path 8" d="M268.447,237.117H134.753a15.039,15.039,0,0,1-12.513-6.7L101.091,198.7A15.039,15.039,0,0,0,88.578,192H6.064A192.848,192.848,0,0,0,0,240.125c0,106.315,86.185,192.5,192.5,192.5A191.633,191.633,0,0,0,283.486,409.8V252.156A15.039,15.039,0,0,0,268.447,237.117Z" transform="translate(0 -192)" fill="#ffdd40"/>
  </g>
  <g id="Group_10" data-name="Group 10" transform="translate(0 144.375)">
    <path id="Path_9" data-name="Path 9" d="M36.143,192H6.064A192.848,192.848,0,0,0,0,240.125c0,106.315,86.185,192.5,192.5,192.5A191.633,191.633,0,0,0,283.486,409.8H253.941c-120.286,0-217.8-97.512-217.8-217.8Z" transform="translate(0 -192)" fill="#ffb332"/>
  </g>
  <g id="Group_11" data-name="Group 11" transform="translate(81.587 232.893)">
    <path id="Path_10" data-name="Path 10" d="M217.533,332.277H119.779a11.279,11.279,0,0,1,0-22.559h97.754a11.279,11.279,0,0,1,0,22.559Z" transform="translate(-108.5 -309.718)" fill="#ffb332"/>
  </g>
  <g id="Group_15" data-name="Group 15" transform="translate(162.441 158.036)">
    <g id="Group_12" data-name="Group 12" transform="translate(21.77)">
      <path id="Path_11" data-name="Path 11" d="M244.976,295.659l31.9,31.9,78.884-78.884a22.558,22.558,0,0,0-31.9-31.9Z" transform="translate(-244.976 -210.167)" fill="#ff4155"/>
    </g>
    <g id="Group_13" data-name="Group 13" transform="translate(21.771 37.638)">
      <path id="Path_12" data-name="Path 12" d="M276.879,339.977l47.854-47.854a22.558,22.558,0,1,1-31.9-31.9l-47.854,47.854Z" transform="translate(-244.977 -260.22)" fill="#e80054"/>
    </g>
    <g id="Group_14" data-name="Group 14" transform="translate(0 55.668)">
      <path id="Path_13" data-name="Path 13" d="M224.158,367.669l70.521-5.771a5.264,5.264,0,0,0,3.293-8.968l-67.183-67.182a5.263,5.263,0,0,0-8.968,3.293l-5.771,70.521A7.519,7.519,0,0,0,224.158,367.669Z" transform="translate(-216.025 -284.199)" fill="#ff4155"/>
    </g>
  </g>
</svg>
